PathFileType	4	(X/Y/Z)	Patient4_TMGait_0pt5_02_left_07.trc.trc
DataRate	CameraRate	NumFrames	NumMarkers	Units	OrigDataRate	OrigDataStartFrame	OrigNumFrames
73.298429319372	73.298429319372	6	33	mm	73.298429319372	1	       141
Frame#	Time	Sacral			L.Shoulder			Chest			R.Shoulder			Neck			R.ASIS			L.ASIS			R.Thigh.Superior			R.Thigh.Lateral			R.Thigh.Inferior			R.Patella			L.Thigh.Superior			L.Thigh.Lateral			L.Thigh.Inferior			L.Patella			L.Shank.Superior			L.Shank.Lateral			L.Shank.Inferior			R.Shank.Superior			R.Shank.Lateral			R.Shank.Inferior			R.Heel			R.Midfoot.Superior			R.Midfoot.Lateral			R.Toe			L.Heel			L.Midfoot.Lateral			L.Midfoot.Superior			L.Toe			L.Elbow			L.Wrist			R.Elbow			R.Wrist			
		X1	Y1	Z1	X2	Y2	Z2	X3	Y3	Z3	X4	Y4	Z4	X5	Y5	Z5	X6	Y6	Z6	X7	Y7	Z7	X8	Y8	Z8	X9	Y9	Z9	X10	Y10	Z10	X11	Y11	Z11	X12	Y12	Z12	X13	Y13	Z13	X14	Y14	Z14	X15	Y15	Z15	X16	Y16	Z16	X17	Y17	Z17	X18	Y18	Z18	X19	Y19	Z19	X20	Y20	Z20	X21	Y21	Z21	X22	Y22	Z22	X23	Y23	Z23	X24	Y24	Z24	X25	Y25	Z25	X26	Y26	Z26	X27	Y27	Z27	X28	Y28	Z28	X29	Y29	Z29	X30	Y30	Z30	X31	Y31	Z31	X32	Y32	Z32	X33	Y33	Z33	

1	8.440000000000	563.421262442383	1009.712344868648	525.694486605156	742.937606011087	1439.729088531927	349.747560703209	847.787618030314	1364.968481505701	507.196342510014	768.972923780756	1435.826974356695	685.264328930586	746.264821870366	1496.534559286624	502.848107129647	792.797002507998	939.670510169378	635.567426661503	772.058361149407	964.498492487265	363.228394376833	834.686404128171	740.803582372745	606.255335102364	750.835492289866	632.795509694958	659.812748558721	828.890342710120	581.126436014119	579.624639115489	828.176594547265	492.477762254624	581.938905920818	849.972026987550	776.307701288476	387.297809048939	799.127169003028	652.215812413853	310.571239763036	902.423306220254	586.306097151861	368.114069059205	912.642645881439	495.324396977384	361.131989733345	844.722408824230	429.269765592514	356.449289818402	701.840764006063	388.943565595318	308.793931925012	686.707269395966	260.429585281513	366.001369987053	799.882142991450	404.658446314815	586.771385379534	727.893051981335	299.453089291135	643.201903522967	770.525287598107	206.239541521448	578.637461834849	636.548322257408	43.406106929667	538.641154434227	806.186275348191	96.533988266990	581.660880142415	716.740397049885	36.452761202247	617.104861289228	925.193615520984	43.041955418536	615.621887486339	493.595008745677	206.553519509938	404.842869893383	548.421370521368	152.871805773759	327.326910344352	654.181688600816	154.900692760126	347.812995610858	724.549216473287	36.455061974003	326.588668175853	691.735812501925	1085.912804464681	239.615097237834	752.283061508141	831.000768529728	231.193362903627	781.632375503434	1090.839226452272	807.723932030143	1002.105045345221	957.793334086417	778.357156682703	
2	8.453642857143	562.455896386973	1010.946308645936	527.994636242250	741.255398268664	1440.373921366522	351.023045950251	847.774444487849	1365.199185655209	507.091610134741	771.434567088517	1436.411868095483	686.085273548771	746.460429578869	1497.065972110255	503.993727765309	792.573542652894	940.101324257324	635.965975476732	769.677860906352	965.389835191099	363.884915741935	831.140738235809	740.197681210318	605.899738225804	746.579584487506	633.073991476584	660.504409737819	823.075429841719	580.498226403517	579.787188160387	821.576040561256	492.328941035029	582.296267331481	849.293589826789	779.480043819514	387.918522074517	800.239536833620	654.874332213025	310.779092944912	904.091598373148	590.255834437059	368.408298038231	916.121726808221	500.387525514357	361.080527947385	851.598858071415	432.573512838669	355.819154453207	711.449132047037	384.827597214351	308.731663715340	704.438797768078	255.716328593681	364.776663691846	793.254694228800	404.662996505494	587.162115823960	721.115444169150	299.613890576884	643.646331284113	763.536875494905	206.358961160240	578.882082430453	629.253656309344	43.518055796765	538.699562887005	798.985775219990	96.533708153757	581.880141519312	709.507613163186	36.480517602273	617.207617225719	917.951355079957	42.819873765702	615.717999435594	516.237768512539	189.896037142823	404.544810990813	573.094348903789	141.101699905841	325.836627122866	678.130137997641	149.555218002516	345.606566345634	755.143726766590	36.867831085265	322.023510989893	683.006669620497	1087.698798775132	241.654066104271	734.465253361119	831.580115311781	232.855231450234	792.123996436970	1092.979090769727	809.211670424045	1018.430395905700	976.999924531068	775.219787997634	
3	8.467285714286	561.527539501387	1012.136230911893	530.249853742063	739.586059777783	1441.023047688178	352.296158837904	847.758275764529	1365.403978328386	506.971296203439	773.876024102478	1436.929929479917	686.888082706380	746.657996782821	1497.570727828322	505.149282550278	792.327962679514	940.496783858088	636.319867698073	767.324216737492	966.237487965204	364.482077420079	827.624960435651	739.593417889923	605.566785595791	742.317869777420	633.347698144222	661.192266427707	817.287135861787	579.867628188804	579.979659455932	814.998070418605	492.179164055626	582.677704279765	848.502050536418	782.483651498802	388.526579613828	801.158297652502	657.383053907761	310.991354902447	905.473414648008	593.985896997596	368.772756962196	919.315331732606	505.307051090989	361.076228562651	858.259799513783	435.793101659970	355.226343907399	721.080053830946	380.546571909296	308.606024292319	722.283443394463	250.994780722645	363.531627634124	786.641082122154	404.671217481052	587.559205133229	714.353589997569	299.772798468954	644.088986673846	756.573896861495	206.475638941731	579.134399382088	621.999545871702	43.629322499294	538.761196241490	791.817018273089	96.531625751403	582.095102531273	702.306131912962	36.505022237963	617.306575728216	910.742000603890	42.597376872134	615.813086800471	539.295207384361	173.165645273972	404.119868576998	598.150051652051	129.356722514799	324.266674913500	702.305332993393	144.300217130218	343.392318064821	785.940503316100	37.575450289001	317.514459036114	674.267845082267	1089.565824740658	243.595570668009	716.955749809554	832.299013412188	234.515448127943	802.593299960758	1095.094758754045	810.635211056712	1034.408611184455	996.142257927875	772.012082060239	
4	8.480928571429	560.662202772341	1013.237718600853	532.402500975902	737.952204552387	1441.669647608142	353.544109316879	847.733009516271	1365.558956804696	506.817765809122	776.253928001063	1437.326485290973	687.641937314178	746.851012364569	1498.019750172426	506.299359772444	792.046154449762	940.826277881363	636.587838129080	765.033067212654	966.995114143037	364.968407623091	824.182423560578	738.992043320051	605.273394410443	738.073526045708	633.608660920652	661.864126533031	811.580238594101	579.236374172553	580.217078484615	808.501974428057	492.028175946211	583.094061230672	847.500817862231	785.144638888588	389.103540389240	801.711576656340	659.598665901762	311.192171690179	906.326534954629	597.282711565866	369.240281739359	921.956717907280	509.923298048977	361.156151756301	864.473960092113	438.847312027263	354.702077107472	730.694172817119	376.038673284393	308.366244699441	740.195164674623	246.357069446730	362.267829547339	780.086114301291	404.683580671876	587.960516185539	707.651912993969	299.926664488283	644.521886667430	749.686834636469	206.586402849699	579.395775701616	614.837300429621	43.740619665919	538.824452479435	784.731051521359	96.527953446945	582.301009194804	695.184178716708	36.524724653259	617.398129814376	903.614053383227	42.377360622664	615.905816185939	562.938189714412	156.534258368934	403.479693613175	623.725633252245	117.829512603116	322.590441829740	726.708982600403	139.320231539359	341.201832336436	816.851530919257	38.879528616121	313.203998072901	665.574739993772	1091.564832665614	245.353352802071	700.106129663759	833.260384566664	236.160338828830	812.962832149140	1097.167578742283	811.905261849165	1049.639106954432	1015.039537979124	768.680460176339	
5	8.494571428571	559.876019448516	1014.215795715739	534.406728694955	736.371157826344	1442.305569158472	354.744260057038	847.691687571174	1365.644631087208	506.614432346372	778.529319357114	1437.559193397950	688.318234793964	747.031841011638	1498.387565017354	507.425706125905	791.723350757332	941.070761122241	636.738662908608	762.829390851492	967.621977310079	365.303326465993	820.841686784656	738.390932834731	605.035677387262	733.856498131984	633.848556669026	662.509707919968	805.989331756647	578.603930582699	580.511027664278	802.120533786516	491.872434852160	583.551649291593	846.201855526738	787.316347222515	389.633131055481	801.750509974890	661.403514066313	311.359184387229	906.452762889400	599.973081336248	369.825058458726	923.831937564437	514.111361357739	361.348495232572	870.059519855518	441.683434507119	354.274325735423	740.291421914340	371.276491458675	307.960922885666	758.154342674314	241.919586040120	360.997152265934	773.611644170761	404.698207155896	588.363584940716	701.028522340013	300.072344003753	644.937951914688	742.897483524500	206.688446458503	579.665507617098	607.785609267606	43.851809785577	538.889950631582	777.747274190325	96.523130308388	582.493734029211	688.157895807444	36.538894601257	617.480017024035	896.583329802245	42.163434778554	615.995018514481	587.333162894024	140.202450562840	402.548039893476	649.973687727791	106.728717942382	320.798017812683	751.369458960114	134.813125584923	339.082757264126	847.826494092952	41.076814842144	309.266127409168	656.966553452371	1093.736807602987	246.866546478028	684.157976071870	834.539577424259	237.781621796710	823.191100922733	1099.192207823173	812.937039290215	1063.822091834872	1033.568333605222	765.172143926952	
6	8.508214285714	559.173798777874	1015.047150552347	536.228956679205	734.855766985518	1442.920063498237	355.872708056900	847.626901192796	1365.648109185984	506.347247155277	780.666584779016	1437.603608083898	688.891236121504	747.191151859706	1498.654469150876	508.504889095467	791.364107192739	941.222744351366	636.753373785566	760.729373220486	968.086435493157	365.461470133829	817.619293237954	737.784766382149	604.865915621227	729.671623934095	634.059001948373	663.119820156151	800.535440612205	577.968745402017	580.865878395079	795.868383421503	491.705609421730	584.048804060738	844.540455414549	788.892647419781	390.101432158919	801.169441809188	662.716898410443	311.464383660426	905.725004892209	601.940239911931	370.517011741730	924.802654663958	517.786865082164	361.667991523389	874.894032202342	444.278046708441	353.964146232601	749.886862967384	366.284756968751	307.347825126626	776.126040221718	237.821475679123	359.743738868453	767.225768714387	404.710597328413	588.763901492443	694.485499811501	300.206817759163	645.330552268008	736.208258979316	206.779298168280	579.939949497178	600.839538888551	43.961612239026	538.959672959183	770.862695507564	96.517934396811	582.670206707127	681.220982561435	36.547609279210	617.551216254724	889.642750942493	41.960018997000	616.079620327206	612.560662130484	124.417640510666	401.276450434580	676.978362251110	96.281630522022	318.905158625107	776.277878980449	130.977560362289	337.098618357310	878.783442131574	44.416287108859	305.895362896414	648.479875398850	1096.101853603241	248.104383172930	669.246072149717	836.171657111765	239.373234803300	833.255792289566	1101.174265461155	813.655182541144	1076.764312317741	1051.638504805693	761.447252494388	
